<svg width="130" height="77" viewBox="0 0 130 77" fill="none" xmlns="http://www.w3.org/2000/svg">
<path d="M93.571 76.4688C106.276 77.1036 116.278 72.6867 123.566 63.2002C134.516 48.957 130.989 28.1958 116.779 17.6721C109.142 12.0213 100.537 10.0543 90.9655 11.7441C90.5894 11.8157 90.2044 11.6994 89.9358 11.4223C89.1479 10.6354 88.3689 9.87545 87.6078 9.12439C75.0636 -3.09809 55.3744 -2.91927 42.669 8.92769C41.8721 9.6698 41.0394 10.3851 40.1888 11.0736C39.9023 11.306 39.571 11.3865 39.2129 11.3328C27.3939 9.6698 17.697 12.5578 10.1132 20.0057C-2.51157 32.3891 -3.64869 52.3814 8.58212 65.5964C16.5868 74.2424 25.7643 76.6476 37.7355 76.433C46.6892 76.2721 55.6877 76.2631 64.7131 76.3972L93.571 76.4688ZM68.7691 68.2519C58.2216 68.2072 47.307 68.2161 36.0253 68.2877C31.1366 68.3145 27.1074 67.7333 23.9288 66.5263C9.44167 61.0275 3.80082 43.6728 11.8144 30.6367C16.6047 22.84 25.4778 18.2533 34.6464 19.0311C35.0225 19.058 35.1479 19.2547 35.0315 19.6123L32.7124 26.7741C32.5781 27.1765 32.2737 27.5073 31.8797 27.6772C28.6833 29.0005 20.1235 33.9807 23.8303 38.4065C24.8779 39.6583 26.7403 39.846 28.0117 38.8178C29.704 37.4587 30.9754 35.5185 33.0169 34.5976C37.7534 32.4785 42.0243 33.3101 45.8207 37.1011C47.6025 38.8893 48.0502 43.2436 50.5035 43.8337C54.0044 44.6653 55.5982 41.3302 54.4342 38.5048C52.0436 32.7021 47.9607 28.9558 42.2034 27.2838C41.308 27.0245 41.0305 26.4612 41.3618 25.5939C45.4357 14.9808 52.733 9.21381 63.2626 8.27499C69.6377 7.7117 75.6725 9.70557 81.385 14.2655C81.8685 14.65 81.8416 14.9898 81.3133 15.3027C78.9316 16.6886 76.7201 18.289 74.6786 20.0951C74.3384 20.3991 73.8638 20.5064 73.4251 20.3991C67.9991 19.0848 63.8715 18.5304 58.2754 20.5511C57.4427 20.8551 56.798 21.5346 56.5473 22.393C56.2339 23.4391 56.2966 24.36 56.7443 25.1468C57.5053 26.5238 58.6693 27.1049 60.2273 26.8904C61.1853 26.7652 62.1523 26.5595 63.1283 26.3002C67.7036 25.0753 73.058 26.9261 76.2187 30.1002C78.4571 32.3355 80.0061 38.5674 84.3039 36.198C88.4405 33.927 83.2653 27.7576 81.4566 25.8085C81.1074 25.424 81.1432 25.0843 81.5551 24.7803C89.0762 19.2547 97.0182 17.9046 105.39 20.7389C119.304 25.4419 125.464 41.2229 119.447 54.2412C115.857 62.011 107.96 67.5992 99.4805 68.1804C96.3377 68.395 93.1502 68.4397 89.9 68.3145L68.7691 68.2519Z" fill="#14A5F8"/>
<path d="M110.771 44.6102C106.769 44.3152 104.369 42.2945 103.554 38.5481C103.25 37.0997 103.769 35.4277 104.163 34.024C105.184 30.2687 100.197 28.1944 98.2536 31.127C96.3644 33.9882 96.4718 38.0832 97.215 41.4898C97.4388 42.5269 97.3851 43.5194 97.0538 44.4672C94.2871 52.4158 86.3989 56.2694 78.4122 53.5513C78.3853 53.5424 78.3585 53.5334 78.3226 53.5155C78.0361 53.3635 77.9287 53.0148 78.0719 52.7287C79.5493 49.9302 81.6087 43.3763 78.6629 40.9444C77.1497 39.6926 75.6097 39.8178 74.0428 41.3467C73.613 41.758 73.3981 42.2587 73.3891 42.8399C73.2011 51.4502 68.975 55.0534 60.7107 53.6586C59.1975 53.4083 58.0604 53.9447 57.2904 55.268C57.1202 55.5631 57.0128 55.876 56.968 56.1889C56.6546 58.299 57.5321 59.6313 59.5825 60.1856C63.9072 61.3479 68.008 60.883 71.8849 58.7908C72.2252 58.612 72.5923 58.5583 72.9683 58.6388C75.0187 59.0859 76.8005 60.3287 78.9046 60.7042C89.2283 62.6086 96.9643 58.299 102.354 49.5278C102.596 49.1434 102.919 49.0539 103.312 49.2775C106.312 50.9137 111.577 52.997 113.914 49.653C115.615 47.2568 113.171 44.7801 110.771 44.6102Z" fill="#14A5F8"/>
<path d="M38.7329 50.3152C34.5157 53.3463 30.3074 53.5877 26.1081 51.0305C24.1562 49.8414 22.7146 46.9087 20.0464 47.5614C18.9451 47.8296 18.1751 48.4913 17.7363 49.5552C16.8678 51.6653 18.5601 53.7308 20.0822 54.9736C26.0007 59.8465 32.5011 60.7853 39.5656 57.79C41.8219 56.8423 45.4303 54.3924 43.7918 51.4686C42.6994 49.5016 40.5505 49.0098 38.7329 50.3152Z" fill="#14A5F8"/>
</svg>
